<svg xmlns="http://www.w3.org/2000/svg" width="86" height="86" viewBox="0 0 86 86">
  <g id="Group_123" data-name="Group 123" transform="translate(0 -0.459)">
    <g id="Group_156" data-name="Group 156">
      <g id="Ellipse_1" data-name="Ellipse 1" transform="translate(0 0.459)" fill="none" stroke="#4299e1" stroke-width="2">
        <circle cx="43" cy="43" r="43" stroke="none"/>
        <circle cx="43" cy="43" r="42" fill="none"/>
      </g>
      <path id="Path_66" data-name="Path 66" d="M0,12.552c7.365,4.826,17.76-3.488,17.76-3.488s2.392-1.567,1.7-3.4C19.08,4.658,17.2,4.759,15.38,3.476,13.289,2.369,13.66-.011,12.263,0c-5.1-.021-5.057,5.252-6.191,8.664S0,12.552,0,12.552Z" transform="translate(20.773 51.703) rotate(-11)" fill="none" stroke="#4299e1" stroke-width="2"/>
      <g id="Path_67" data-name="Path 67" transform="matrix(0.839, 0.545, -0.545, 0.839, 56.539, 16.621)" fill="none">
        <path d="M7.134.519,6.12,34.8A5.866,5.866,0,0,1,2.411,36.41,2.061,2.061,0,0,1,0,34.528L6.373.506S6.607,0,6.8,0,7.134.519,7.134.519Z" stroke="none"/>
        <path d="M 6.795247077941895 -3.814697265625e-06 C 6.605252265930176 -3.814697265625e-06 6.37286901473999 0.5064506530761719 6.37286901473999 0.5064506530761719 L -9.5367431640625e-07 34.52821350097656 C -9.5367431640625e-07 34.52821350097656 0.08810329437255859 36.41593933105469 2.204385280609131 36.41593933105469 C 2.271139621734619 36.41593933105469 2.339967727661133 36.41405868530273 2.410818576812744 36.41018295288086 C 4.727828979492188 36.28343200683594 6.120278835296631 34.79912185668945 6.120278835296631 34.79912185668945 L 7.134138584136963 0.5191307067871094 C 7.134138584136963 0.5191307067871094 6.987339019775391 0.00318145751953125 6.797019004821777 1.1444091796875e-05 C 6.796426296234131 0 6.795840263366699 -3.814697265625e-06 6.795247077941895 -3.814697265625e-06 M 6.795248985290527 -2 L 6.812198638916016 -2 L 6.83090877532959 -1.999698638916016 C 7.223138809204102 -1.993167877197266 8.544658660888672 -1.831657409667969 9.057788848876953 -0.02818679809570312 L 9.14240837097168 0.2692031860351562 L 9.133268356323242 0.5782623291015625 L 8.11940860748291 34.85824966430664 L 8.097019195556641 35.61519241333008 L 7.578908920288086 36.16748046875 C 7.380228996276855 36.3792724609375 5.550308704376221 38.24143218994141 2.520058631896973 38.40719223022461 C 2.41412878036499 38.41300201416016 2.307888984680176 38.41594314575195 2.204388618469238 38.41594314575195 C 0.6257085800170898 38.41594314575195 -0.654691219329834 37.73910140991211 -1.400941371917725 36.51011276245117 C -1.912301540374756 35.66797256469727 -1.987081050872803 34.85160064697266 -1.997830867767334 34.62145233154297 L -2.008680820465088 34.38885116577148 L -1.965811252593994 34.15998077392578 L 4.407058715820312 0.1382217407226562 L 4.452398777008057 -0.1038093566894531 L 4.555088996887207 -0.3276176452636719 C 5.222748756408691 -1.782730102539062 6.245198726654053 -2 6.795248985290527 -2 Z" stroke="none" fill="#4299e1"/>
      </g>
    </g>
  </g>
</svg>
