<svg xmlns="http://www.w3.org/2000/svg" width="86" height="86" viewBox="0 0 86 86">
  <g id="Group_181" data-name="Group 181" transform="translate(-379 -1857)">
    <g id="Group_83" data-name="Group 83" transform="translate(-47.5 340.5)">
      <g id="Ellipse_1" data-name="Ellipse 1" transform="translate(426.5 1516.5)" fill="none" stroke="#4299e1" stroke-width="2">
        <circle cx="43" cy="43" r="43" stroke="none"/>
        <circle cx="43" cy="43" r="42" fill="none"/>
      </g>
    </g>
    <g id="Polygon_1" data-name="Polygon 1" transform="translate(441 1882) rotate(90)" fill="none">
      <path d="M16,3.788a3,3,0,0,1,5.006,0L33.925,23.346A3,3,0,0,1,31.422,28H5.578a3,3,0,0,1-2.5-4.654Z" stroke="none"/>
      <path d="M 18.49999046325684 4.442100524902344 C 18.29911994934082 4.442100524902344 17.92362976074219 4.500400543212891 17.6656608581543 4.890840530395508 L 4.743480682373047 24.4487419128418 C 4.446140289306641 24.89877128601074 4.612010955810547 25.31543159484863 4.697120666503906 25.47368240356445 C 4.782230377197266 25.63193130493164 5.038429260253906 26.00000190734863 5.57781982421875 26.00000190734863 L 31.42218017578125 26.00000190734863 C 31.96157073974609 26.00000190734863 32.21776962280273 25.63193130493164 32.30287933349609 25.47368240356445 C 32.38798904418945 25.31543159484863 32.55385971069336 24.89877128601074 32.25651931762695 24.4487419128418 L 19.33432960510254 4.890840530395508 C 19.07636070251465 4.500400543212891 18.70085906982422 4.442100524902344 18.49999046325684 4.442100524902344 M 18.4999942779541 2.442104339599609 C 19.45500755310059 2.442104339599609 20.41002082824707 2.890846252441406 21.00300025939941 3.788331985473633 L 33.92518997192383 23.34623146057129 C 35.24295043945312 25.34069061279297 33.81266021728516 28.00000190734863 31.42218017578125 28.00000190734863 L 5.57781982421875 28.00000190734863 C 3.187339782714844 28.00000190734863 1.757049560546875 25.34069061279297 3.074810028076172 23.34623146057129 L 15.99699020385742 3.788331985473633 C 16.58996963500977 2.890846252441406 17.54498291015625 2.442104339599609 18.4999942779541 2.442104339599609 Z" stroke="none" fill="#4299e1"/>
    </g>
  </g>
</svg>
