<svg id="icn-camera" xmlns="http://www.w3.org/2000/svg" width="87" height="86" viewBox="0 0 87 86">
  <g id="Ellipse_1" data-name="Ellipse 1">
    <ellipse id="Ellipse_77" data-name="Ellipse 77" cx="43.5" cy="43" rx="43.5" ry="43" fill="none"/>
    <ellipse id="Ellipse_78" data-name="Ellipse 78" cx="42.5" cy="42" rx="42.5" ry="42" transform="translate(1 1)" fill="none" stroke="#4299e1" stroke-width="2"/>
  </g>
  <g id="Group_98" data-name="Group 98">
    <g id="Rectangle_31" data-name="Rectangle 31">
      <rect id="Rectangle_60" data-name="Rectangle 60" width="29" height="33" rx="4" transform="translate(21 27)" fill="none"/>
      <rect id="Rectangle_61" data-name="Rectangle 61" width="27" height="31" rx="3" transform="translate(22 28)" fill="none" stroke="#4299e1" stroke-width="2"/>
    </g>
    <g id="Path_85" data-name="Path 85">
      <path id="Path_88" data-name="Path 88" d="M51.58,44.63s-.14-.42,0-.6l11.87-16a.49.49,0,0,1,.7-.1.48.48,0,0,1,.2.4v32a.5.5,0,0,1-.5.5.51.51,0,0,1-.4-.2Z" fill="none"/>
      <path id="Path_89" data-name="Path 89" d="M63.45,28.05,55.22,39.48a6.4,6.4,0,0,1,.88,1.82l6.25-8.42V55.79l-6-8.15a7.11,7.11,0,0,1-1.09,1.89l8.23,11.09a.5.5,0,0,0,.9-.3v-32a.5.5,0,0,0-.94-.27Z" fill="#4299e1"/>
    </g>
    <g id="Rectangle_32" data-name="Rectangle 32">
      <rect id="Rectangle_62" data-name="Rectangle 62" width="8" height="23" rx="1" transform="translate(49 32)" fill="none"/>
      <rect id="Rectangle_63" data-name="Rectangle 63" width="6" height="21" transform="translate(50 33)" fill="none" stroke="#4299e1" stroke-width="2"/>
    </g>
  </g>
  <line id="Line_46" data-name="Line 46" y2="15.46" transform="translate(57 36.47)" fill="#4299e1"/>
</svg>
