<svg id="Group_130" data-name="Group 130" xmlns="http://www.w3.org/2000/svg" width="86" height="86" viewBox="0 0 86 86">
  <g id="Group_106" data-name="Group 106">
    <g id="Ellipse_1" data-name="Ellipse 1" fill="none" stroke="#4299e1" stroke-width="2">
      <circle cx="43" cy="43" r="43" stroke="none"/>
      <circle cx="43" cy="43" r="42" fill="none"/>
    </g>
  </g>
  <g id="Group_129" data-name="Group 129" transform="translate(18.752 15.877)">
    <g id="Path_78" data-name="Path 78" transform="translate(38.516 2.164) rotate(39)" fill="#4299e1">
      <path d="M 8.781711578369141 50.74131774902344 L 0.518207848072052 50.74131774902344 L 2.315325736999512 0.5022574067115784 L 5.835319042205811 0.5187323093414307 L 8.781711578369141 50.74131774902344 Z" stroke="none"/>
      <path d="M 2.797678470611572 1.004524230957031 L 1.036413192749023 50.24131774902344 L 8.251520156860352 50.24131774902344 L 5.363665580749512 1.016529083251953 L 2.797678470611572 1.004524230957031 M 1.832973003387451 0 L 6.306972980499268 0.02092742919921875 L 9.31190299987793 51.24131774902344 L 2.86102294921875e-06 51.24131774902344 L 1.832973003387451 0 Z" stroke="none" fill="#4299e1"/>
    </g>
    <g id="Path_81" data-name="Path 81" transform="matrix(0.788, 0.616, -0.616, 0.788, 28.684, 19.998)">
      <path d="M.626,0c.346,0,.626.421.626.94V28.195c0,.519-.28.94-.626.94S0,28.714,0,28.195V.94C0,.421.28,0,.626,0Z" stroke="none"/>
      <path d="M 0.6262381672859192 -1.9073486328125e-06 C 0.9721048474311829 -1.9073486328125e-06 1.252471446990967 0.4207649230957031 1.252471446990967 0.9398193359375 L 1.252471446990967 28.19457626342773 C 1.252471446990967 28.71363067626953 0.9721048474311829 29.13439750671387 0.6262381672859192 29.13439750671387 C 0.2803714871406555 29.13439750671387 4.887580871582031e-06 28.71363067626953 4.887580871582031e-06 28.19457626342773 L 4.887580871582031e-06 0.9398193359375 C 4.887580871582031e-06 0.4207649230957031 0.2803714871406555 -1.9073486328125e-06 0.6262381672859192 -1.9073486328125e-06 Z" stroke="none"/>
    </g>
    <path id="Path_79" data-name="Path 79" d="M5.016,0l4.3,7.091H0Z" transform="translate(7.237 55.109) rotate(-141)" fill="#4299e1"/>
    <path id="Path_80" data-name="Path 80" d="M.248,2.34S.483.034,2.14-.017,4.266,2.608,4.266,2.608l.209,1.472H0Z" transform="matrix(0.777, 0.629, -0.629, 0.777, 42.618, 0)" fill="#4299e1"/>
  </g>
</svg>
